<?xml version="1.0" encoding="utf-8"?>
<!-- Generator: Adobe Illustrator 17.0.0, SVG Export Plug-In . SVG Version: 6.00 Build 0)  -->
<!DOCTYPE svg PUBLIC "-//W3C//DTD SVG 1.1//EN" "http://www.w3.org/Graphics/SVG/1.1/DTD/svg11.dtd">
<svg version="1.1" id="Z:_x5C_Dropbox_x5C_BEP_x5C_git_x5C_doc_x5C_thesis_x5C_implementation_x5C_hardware_x5C_sim_x5F_schematic"
	 xmlns="http://www.w3.org/2000/svg" xmlns:xlink="http://www.w3.org/1999/xlink" x="0px" y="0px" width="762.18px"
	 height="111.507px" viewBox="42 2.993 762.18 111.507" enable-background="new 42 2.993 762.18 111.507" xml:space="preserve">
<g>
	<text transform="matrix(1 0 0 1 600.5 41)" font-family="'ArialMT'" font-size="7">C9</text>
</g>
<g>
	<text transform="matrix(1 0 0 1 597.5 9)" font-family="'ArialMT'" font-size="7">1.2p</text>
</g>
<line fill="none" stroke="#FF0000" x1="594.5" y1="23" x2="602.5" y2="23"/>
<line fill="none" stroke="#FF0000" x1="618.5" y1="23" x2="609.5" y2="23"/>
<line fill="none" stroke="#FF0000" x1="609.5" y1="14" x2="609.5" y2="31"/>
<line fill="none" stroke="#FF0000" x1="602.5" y1="14" x2="602.5" y2="31"/>
<line fill="none" stroke="#FF0000" x1="558.5" y1="107" x2="582.5" y2="107"/>
<line fill="none" stroke="#FF0000" x1="567.5" y1="114" x2="572.5" y2="114"/>
<line fill="none" stroke="#FF0000" x1="562.5" y1="110" x2="577.5" y2="110"/>
<line fill="none" stroke="#FF0000" x1="570.5" y1="95" x2="570.5" y2="107"/>
<line fill="none" stroke="#FF0000" x1="294.5" y1="107" x2="318.5" y2="107"/>
<line fill="none" stroke="#FF0000" x1="303.5" y1="114" x2="308.5" y2="114"/>
<line fill="none" stroke="#FF0000" x1="298.5" y1="110" x2="313.5" y2="110"/>
<line fill="none" stroke="#FF0000" x1="306.5" y1="95" x2="306.5" y2="107"/>
<g>
	<text transform="matrix(1 0 0 1 370.5 12)" font-family="'ArialMT'" font-size="7">60n</text>
</g>
<g>
	<text transform="matrix(1 0 0 1 373.5 40)" font-family="'ArialMT'" font-size="7">L5</text>
</g>
<line fill="none" stroke="#FF0000" x1="390.5" y1="23" x2="402.5" y2="23"/>
<line fill="none" stroke="#FF0000" x1="354.5" y1="23" x2="366.5" y2="23"/>
<path fill="none" stroke="#FF0000" d="M364.577,28.974c0.262,0.786,1.112,1.211,1.897,0.949c0.448-0.149,0.799-0.501,0.949-0.949"/>
<path fill="none" stroke="#FF0000" d="M367.423,28.974c0.262-0.786-0.163-1.635-0.949-1.897c-0.786-0.262-1.635,0.163-1.897,0.949
	c-0.103,0.308-0.103,0.641,0,0.949"/>
<path fill="none" stroke="#FF0000" d="M390.5,23c0-3.314-2.686-6-6-6s-6,2.686-6,6"/>
<path fill="none" stroke="#FF0000" d="M378.5,23c0-3.314-2.686-6-6-6s-6,2.686-6,6"/>
<g>
	<text transform="matrix(1 0 0 1 269.5 56)" font-family="'ArialMT'" font-size="7">C2</text>
</g>
<g>
	<text transform="matrix(1 0 0 1 269.5 69)" font-family="'ArialMT'" font-size="7">12p</text>
</g>
<line fill="none" stroke="#FF0000" x1="258.5" y1="71" x2="258.5" y2="62"/>
<line fill="none" stroke="#FF0000" x1="258.5" y1="47" x2="258.5" y2="55"/>
<line fill="none" stroke="#FF0000" x1="249.5" y1="55" x2="266.5" y2="55"/>
<line fill="none" stroke="#FF0000" x1="249.5" y1="62" x2="266.5" y2="62"/>
<g>
	<text transform="matrix(1 0 0 1 154.5 12)" font-family="'ArialMT'" font-size="7">60n</text>
</g>
<g>
	<text transform="matrix(1 0 0 1 157.5 40)" font-family="'ArialMT'" font-size="7">L1</text>
</g>
<line fill="none" stroke="#FF0000" x1="174.5" y1="23" x2="186.5" y2="23"/>
<line fill="none" stroke="#FF0000" x1="138.5" y1="23" x2="150.5" y2="23"/>
<path fill="none" stroke="#FF0000" d="M148.577,28.974c0.262,0.786,1.111,1.211,1.897,0.949c0.448-0.149,0.799-0.501,0.949-0.949"/>
<path fill="none" stroke="#FF0000" d="M151.423,28.974c0.262-0.786-0.163-1.635-0.949-1.897c-0.786-0.262-1.635,0.163-1.897,0.949
	c-0.103,0.308-0.103,0.641,0,0.949"/>
<path fill="none" stroke="#FF0000" d="M174.5,23c0-3.314-2.686-6-6-6s-6,2.686-6,6"/>
<path fill="none" stroke="#FF0000" d="M162.5,23c0-3.314-2.686-6-6-6s-6,2.686-6,6"/>
<g>
	<text transform="matrix(1 0 0 1 69.5 56)" font-family="'ArialMT'" font-size="7">AC 1</text>
</g>
<g>
	<text transform="matrix(1 0 0 1 69.5 69)" font-family="'ArialMT'" font-size="7">V5</text>
</g>
<line fill="none" stroke="#FF0000" x1="58.5" y1="51" x2="58.5" y2="56"/>
<line fill="none" stroke="#FF0000" x1="56.5" y1="54" x2="61.5" y2="54"/>
<line fill="none" stroke="#FF0000" x1="54.5" y1="83" x2="54.5" y2="95"/>
<line fill="none" stroke="#FF0000" x1="54.5" y1="47" x2="54.5" y2="59"/>
<path fill="none" stroke="#FF0000" d="M54.535,70.995c0.273,1.914,2.046,3.243,3.959,2.97c1.54-0.22,2.751-1.43,2.97-2.97"/>
<path fill="none" stroke="#FF0000" d="M54.46,70.995c0.343-1.925-1.145-3.672-3.322-3.901s-4.22,1.145-4.562,3.071
	c-0.049,0.276-0.061,0.555-0.035,0.831"/>
<circle fill="none" stroke="#FF0000" cx="54.5" cy="71" r="12"/>
<g>
	<text transform="matrix(1 0 0 1 91.5 14)" font-family="'ArialMT'" font-size="7">50</text>
</g>
<g>
	<text transform="matrix(1 0 0 1 90.5 36)" font-family="'ArialMT'" font-size="7">R9</text>
</g>
<line fill="none" stroke="#FF0000" x1="87.5" y1="19" x2="105.5" y2="19"/>
<line fill="none" stroke="#FF0000" x1="105.5" y1="19" x2="105.5" y2="26"/>
<line fill="none" stroke="#FF0000" x1="87.5" y1="23" x2="78.5" y2="23"/>
<line fill="none" stroke="#FF0000" x1="105.5" y1="23" x2="114.5" y2="23"/>
<line fill="none" stroke="#FF0000" x1="87.5" y1="26" x2="87.5" y2="19"/>
<line fill="none" stroke="#FF0000" x1="105.5" y1="26" x2="87.5" y2="26"/>
<line fill="none" stroke="#FF0000" x1="42.5" y1="107" x2="66.5" y2="107"/>
<line fill="none" stroke="#FF0000" x1="51.5" y1="114" x2="56.5" y2="114"/>
<line fill="none" stroke="#FF0000" x1="46.5" y1="110" x2="61.5" y2="110"/>
<line fill="none" stroke="#FF0000" x1="54.5" y1="95" x2="54.5" y2="107"/>
<g>
	<text transform="matrix(1 0 0 1 792.5 56)" font-family="'ArialMT'" font-size="7">180</text>
</g>
<g>
	<text transform="matrix(1 0 0 1 792.5 69)" font-family="'ArialMT'" font-size="7">R8</text>
</g>
<line fill="none" stroke="#FF0000" x1="782.5" y1="74" x2="782.5" y2="56"/>
<line fill="none" stroke="#FF0000" x1="782.5" y1="56" x2="789.5" y2="56"/>
<line fill="none" stroke="#FF0000" x1="786.5" y1="74" x2="786.5" y2="83"/>
<line fill="none" stroke="#FF0000" x1="786.5" y1="56" x2="786.5" y2="47"/>
<line fill="none" stroke="#FF0000" x1="789.5" y1="74" x2="782.5" y2="74"/>
<line fill="none" stroke="#FF0000" x1="789.5" y1="56" x2="789.5" y2="74"/>
<line fill="none" stroke="#FF0000" x1="774.5" y1="107" x2="798.5" y2="107"/>
<line fill="none" stroke="#FF0000" x1="783.5" y1="114" x2="788.5" y2="114"/>
<line fill="none" stroke="#FF0000" x1="778.5" y1="110" x2="793.5" y2="110"/>
<line fill="none" stroke="#FF0000" x1="786.5" y1="95" x2="786.5" y2="107"/>
<g>
	<text transform="matrix(1 0 0 1 204.5 41)" font-family="'ArialMT'" font-size="7">C1</text>
</g>
<g>
	<text transform="matrix(1 0 0 1 201.5 9)" font-family="'ArialMT'" font-size="7">1.5p</text>
</g>
<line fill="none" stroke="#FF0000" x1="198.5" y1="23" x2="206.5" y2="23"/>
<line fill="none" stroke="#FF0000" x1="222.5" y1="23" x2="213.5" y2="23"/>
<line fill="none" stroke="#FF0000" x1="213.5" y1="14" x2="213.5" y2="31"/>
<line fill="none" stroke="#FF0000" x1="206.5" y1="14" x2="206.5" y2="31"/>
<g>
	<text transform="matrix(1 0 0 1 315.5 44)" font-family="'ArialMT'" font-size="7">7.4n</text>
</g>
<g>
	<text transform="matrix(1 0 0 1 315.5 57)" font-family="'ArialMT'" font-size="7">L3</text>
</g>
<line fill="none" stroke="#FF0000" x1="306.5" y1="71" x2="306.5" y2="83"/>
<line fill="none" stroke="#FF0000" x1="306.5" y1="35" x2="306.5" y2="47"/>
<path fill="none" stroke="#FF0000" d="M300.474,45.077c-0.786-0.262-1.635,0.163-1.897,0.949c-0.262,0.786,0.163,1.635,0.949,1.897
	c0.308,0.103,0.641,0.103,0.949,0"/>
<path fill="none" stroke="#FF0000" d="M300.474,47.923c0.786-0.262,1.211-1.112,0.949-1.897c-0.149-0.448-0.501-0.799-0.949-0.949"
	/>
<path fill="none" stroke="#FF0000" d="M306.5,71c3.314,0,6-2.686,6-6s-2.686-6-6-6"/>
<path fill="none" stroke="#FF0000" d="M306.5,59c3.314,0,6-2.686,6-6s-2.686-6-6-6"/>
<g>
	<text transform="matrix(1 0 0 1 432.5 41)" font-family="'ArialMT'" font-size="7">C3</text>
</g>
<g>
	<text transform="matrix(1 0 0 1 429.5 9)" font-family="'ArialMT'" font-size="7">1.5p</text>
</g>
<line fill="none" stroke="#FF0000" x1="426.5" y1="23" x2="434.5" y2="23"/>
<line fill="none" stroke="#FF0000" x1="450.5" y1="23" x2="441.5" y2="23"/>
<line fill="none" stroke="#FF0000" x1="441.5" y1="14" x2="441.5" y2="31"/>
<line fill="none" stroke="#FF0000" x1="434.5" y1="14" x2="434.5" y2="31"/>
<line fill="none" stroke="#FF0000" x1="246.5" y1="107" x2="270.5" y2="107"/>
<line fill="none" stroke="#FF0000" x1="255.5" y1="114" x2="260.5" y2="114"/>
<line fill="none" stroke="#FF0000" x1="250.5" y1="110" x2="265.5" y2="110"/>
<line fill="none" stroke="#FF0000" x1="258.5" y1="95" x2="258.5" y2="107"/>
<g>
	<text transform="matrix(1 0 0 1 514.5 12)" font-family="'ArialMT'" font-size="7">44n</text>
</g>
<g>
	<text transform="matrix(1 0 0 1 517.5 40)" font-family="'ArialMT'" font-size="7">L6</text>
</g>
<line fill="none" stroke="#FF0000" x1="534.5" y1="23" x2="546.5" y2="23"/>
<line fill="none" stroke="#FF0000" x1="498.5" y1="23" x2="510.5" y2="23"/>
<path fill="none" stroke="#FF0000" d="M508.577,28.974c0.262,0.786,1.112,1.211,1.897,0.948c0.448-0.149,0.799-0.501,0.948-0.948"/>
<path fill="none" stroke="#FF0000" d="M511.423,28.974c0.262-0.786-0.163-1.635-0.948-1.897c-0.786-0.262-1.635,0.163-1.897,0.948
	c-0.103,0.308-0.103,0.641,0,0.949"/>
<path fill="none" stroke="#FF0000" d="M534.5,23c0-3.314-2.686-6-6-6s-6,2.686-6,6"/>
<path fill="none" stroke="#FF0000" d="M522.5,23c0-3.314-2.686-6-6-6s-6,2.686-6,6"/>
<g>
	<text transform="matrix(1 0 0 1 581.5 56)" font-family="'ArialMT'" font-size="7">C4</text>
</g>
<g>
	<text transform="matrix(1 0 0 1 581.5 69)" font-family="'ArialMT'" font-size="7">1p</text>
</g>
<line fill="none" stroke="#FF0000" x1="570.5" y1="71" x2="570.5" y2="62"/>
<line fill="none" stroke="#FF0000" x1="570.5" y1="47" x2="570.5" y2="55"/>
<line fill="none" stroke="#FF0000" x1="561.5" y1="55" x2="578.5" y2="55"/>
<line fill="none" stroke="#FF0000" x1="561.5" y1="62" x2="578.5" y2="62"/>
<g>
	<text transform="matrix(1 0 0 1 480.5 68)" font-family="'ArialMT'" font-size="7">1Meg</text>
</g>
<g>
	<text transform="matrix(1 0 0 1 480.5 81)" font-family="'ArialMT'" font-size="7">R1</text>
</g>
<line fill="none" stroke="#FF0000" x1="470.5" y1="86" x2="470.5" y2="68"/>
<line fill="none" stroke="#FF0000" x1="470.5" y1="68" x2="477.5" y2="68"/>
<line fill="none" stroke="#FF0000" x1="474.5" y1="86" x2="474.5" y2="95"/>
<line fill="none" stroke="#FF0000" x1="474.5" y1="68" x2="474.5" y2="59"/>
<line fill="none" stroke="#FF0000" x1="477.5" y1="86" x2="470.5" y2="86"/>
<line fill="none" stroke="#FF0000" x1="477.5" y1="68" x2="477.5" y2="86"/>
<line fill="none" stroke="#FF0000" x1="462.5" y1="107" x2="486.5" y2="107"/>
<line fill="none" stroke="#FF0000" x1="471.5" y1="114" x2="476.5" y2="114"/>
<line fill="none" stroke="#FF0000" x1="466.5" y1="110" x2="481.5" y2="110"/>
<line fill="none" stroke="#FF0000" x1="474.5" y1="95" x2="474.5" y2="107"/>
<line fill="none" stroke="#008000" x1="786.5" y1="95" x2="786.5" y2="83"/>
<line fill="none" stroke="#008000" x1="618.5" y1="23" x2="786.5" y2="23"/>
<line fill="none" stroke="#008000" x1="786.5" y1="23" x2="786.5" y2="47"/>
<line fill="none" stroke="#008000" x1="450.5" y1="23" x2="474.5" y2="23"/>
<rect x="472.5" y="21" fill="#008000" width="5" height="5"/>
<line fill="none" stroke="#008000" x1="474.5" y1="59" x2="474.5" y2="23"/>
<line fill="none" stroke="#008000" x1="474.5" y1="23" x2="498.5" y2="23"/>
<rect x="472.5" y="21" fill="#008000" width="5" height="5"/>
<line fill="none" stroke="#008000" x1="222.5" y1="23" x2="258.5" y2="23"/>
<rect x="256.5" y="21" fill="#008000" width="5" height="5"/>
<line fill="none" stroke="#008000" x1="186.5" y1="23" x2="198.5" y2="23"/>
<line fill="none" stroke="#008000" x1="306.5" y1="83" x2="306.5" y2="95"/>
<line fill="none" stroke="#008000" x1="402.5" y1="23" x2="426.5" y2="23"/>
<line fill="none" stroke="#008000" x1="306.5" y1="23" x2="258.5" y2="23"/>
<rect x="304.5" y="21" fill="#008000" width="5" height="5"/>
<line fill="none" stroke="#008000" x1="258.5" y1="23" x2="258.5" y2="47"/>
<rect x="256.5" y="21" fill="#008000" width="5" height="5"/>
<line fill="none" stroke="#008000" x1="54.5" y1="23" x2="54.5" y2="47"/>
<line fill="none" stroke="#008000" x1="54.5" y1="23" x2="78.5" y2="23"/>
<line fill="none" stroke="#008000" x1="114.5" y1="23" x2="138.5" y2="23"/>
<line fill="none" stroke="#008000" x1="306.5" y1="35" x2="306.5" y2="23"/>
<line fill="none" stroke="#008000" x1="306.5" y1="23" x2="354.5" y2="23"/>
<rect x="304.5" y="21" fill="#008000" width="5" height="5"/>
<line fill="none" stroke="#008000" x1="258.5" y1="71" x2="258.5" y2="95"/>
<line fill="none" stroke="#008000" x1="570.5" y1="71" x2="570.5" y2="95"/>
<line fill="none" stroke="#008000" x1="546.5" y1="23" x2="570.5" y2="23"/>
<rect x="568.5" y="21" fill="#008000" width="5" height="5"/>
<line fill="none" stroke="#008000" x1="570.5" y1="23" x2="570.5" y2="47"/>
<line fill="none" stroke="#008000" x1="570.5" y1="23" x2="594.5" y2="23"/>
<rect x="568.5" y="21" fill="#008000" width="5" height="5"/>
</svg>
