<?xml version="1.0" encoding="utf-8"?>
<!-- Generator: Adobe Illustrator 17.0.0, SVG Export Plug-In . SVG Version: 6.00 Build 0)  -->
<!DOCTYPE svg PUBLIC "-//W3C//DTD SVG 1.1//EN" "http://www.w3.org/Graphics/SVG/1.1/DTD/svg11.dtd">
<svg version="1.1"
	 id="Z:_x5C_Dropbox_x5C_BEP_x5C_git_x5C_doc_x5C_thesis_x5C_implementation_x5C_hardware_x5C_sim_x5F_system_x5F_schematic"
	 xmlns="http://www.w3.org/2000/svg" xmlns:xlink="http://www.w3.org/1999/xlink" x="0px" y="0px" width="1827.562px"
	 height="549.939px" viewBox="-0.5 4.561 1827.562 549.939" enable-background="new -0.5 4.561 1827.562 549.939"
	 xml:space="preserve">
<g>
	<text transform="matrix(1 0 0 1 1166 69)" font-family="'ArialMT'" font-size="11">C9</text>
</g>
<g>
	<text transform="matrix(1 0 0 1 1162 14)" font-family="'ArialMT'" font-size="11">1.2p</text>
</g>
<line fill="none" stroke="#FF0000" x1="1152" y1="36" x2="1168" y2="36"/>
<line fill="none" stroke="#FF0000" x1="1200" y1="36" x2="1183" y2="36"/>
<line fill="none" stroke="#FF0000" x1="1183" y1="19" x2="1183" y2="52"/>
<line fill="none" stroke="#FF0000" x1="1168" y1="19" x2="1168" y2="52"/>
<line fill="none" stroke="#FF0000" x1="1080" y1="204" x2="1128" y2="204"/>
<line fill="none" stroke="#FF0000" x1="1099" y1="218" x2="1108" y2="218"/>
<line fill="none" stroke="#FF0000" x1="1089" y1="211" x2="1118" y2="211"/>
<line fill="none" stroke="#FF0000" x1="1104" y1="180" x2="1104" y2="204"/>
<line fill="none" stroke="#FF0000" x1="552" y1="204" x2="600" y2="204"/>
<line fill="none" stroke="#FF0000" x1="571" y1="218" x2="580" y2="218"/>
<line fill="none" stroke="#FF0000" x1="561" y1="211" x2="590" y2="211"/>
<line fill="none" stroke="#FF0000" x1="576" y1="180" x2="576" y2="204"/>
<g>
	<text transform="matrix(1 0 0 1 708 19)" font-family="'ArialMT'" font-size="11">60n</text>
</g>
<g>
	<text transform="matrix(1 0 0 1 712 66)" font-family="'ArialMT'" font-size="11">L4</text>
</g>
<line fill="none" stroke="#FF0000" x1="744" y1="36" x2="768" y2="36"/>
<line fill="none" stroke="#FF0000" x1="672" y1="36" x2="696" y2="36"/>
<path fill="none" stroke="#FF0000" d="M693.05,47.99c0.275,1.353,1.595,2.227,2.948,1.952c0.984-0.2,1.752-0.969,1.952-1.952"/>
<path fill="none" stroke="#FF0000" d="M697.95,47.99c0.275-1.353-0.599-2.673-1.952-2.948c-1.353-0.275-2.673,0.599-2.948,1.952
	c-0.067,0.328-0.067,0.667,0,0.995"/>
<path fill="none" stroke="#FF0000" d="M744,36c0-6.627-5.373-12-12-12s-12,5.373-12,12"/>
<path fill="none" stroke="#FF0000" d="M720,36c0-6.627-5.373-12-12-12s-12,5.373-12,12"/>
<g>
	<text transform="matrix(1 0 0 1 503 98)" font-family="'ArialMT'" font-size="11">C7</text>
</g>
<g>
	<text transform="matrix(1 0 0 1 503 116)" font-family="'ArialMT'" font-size="11">12p</text>
</g>
<line fill="none" stroke="#FF0000" x1="480" y1="132" x2="480" y2="115"/>
<line fill="none" stroke="#FF0000" x1="480" y1="84" x2="480" y2="100"/>
<line fill="none" stroke="#FF0000" x1="463" y1="100" x2="496" y2="100"/>
<line fill="none" stroke="#FF0000" x1="463" y1="115" x2="496" y2="115"/>
<g>
	<text transform="matrix(1 0 0 1 276 19)" font-family="'ArialMT'" font-size="11">60n</text>
</g>
<g>
	<text transform="matrix(1 0 0 1 280 66)" font-family="'ArialMT'" font-size="11">L7</text>
</g>
<line fill="none" stroke="#FF0000" x1="312" y1="36" x2="336" y2="36"/>
<line fill="none" stroke="#FF0000" x1="240" y1="36" x2="264" y2="36"/>
<path fill="none" stroke="#FF0000" d="M261.049,47.99c0.272,1.354,1.59,2.23,2.944,1.958c0.988-0.199,1.76-0.971,1.958-1.958"/>
<path fill="none" stroke="#FF0000" d="M265.951,47.99c0.272-1.354-0.605-2.672-1.958-2.944c-1.354-0.272-2.672,0.605-2.944,1.958
	c-0.065,0.325-0.065,0.66,0,0.985"/>
<path fill="none" stroke="#FF0000" d="M312,36c0-6.627-5.373-12-12-12s-12,5.373-12,12"/>
<path fill="none" stroke="#FF0000" d="M288,36c0-6.627-5.373-12-12-12s-12,5.373-12,12"/>
<g>
	<text transform="matrix(1 0 0 1 374 69)" font-family="'ArialMT'" font-size="11">C8</text>
</g>
<g>
	<text transform="matrix(1 0 0 1 370 14)" font-family="'ArialMT'" font-size="11">1.5p</text>
</g>
<line fill="none" stroke="#FF0000" x1="360" y1="36" x2="376" y2="36"/>
<line fill="none" stroke="#FF0000" x1="408" y1="36" x2="391" y2="36"/>
<line fill="none" stroke="#FF0000" x1="391" y1="19" x2="391" y2="52"/>
<line fill="none" stroke="#FF0000" x1="376" y1="19" x2="376" y2="52"/>
<g>
	<text transform="matrix(1 0 0 1 594 74)" font-family="'ArialMT'" font-size="11">7.4n</text>
</g>
<g>
	<text transform="matrix(1 0 0 1 594 92)" font-family="'ArialMT'" font-size="11">L8</text>
</g>
<line fill="none" stroke="#FF0000" x1="576" y1="132" x2="576" y2="156"/>
<line fill="none" stroke="#FF0000" x1="576" y1="60" x2="576" y2="84"/>
<path fill="none" stroke="#FF0000" d="M563.99,81.049c-1.354-0.272-2.672,0.605-2.944,1.958s0.605,2.672,1.958,2.944
	c0.325,0.065,0.66,0.065,0.985,0"/>
<path fill="none" stroke="#FF0000" d="M563.99,85.951c1.354-0.272,2.23-1.59,1.958-2.944c-0.198-0.988-0.971-1.76-1.958-1.958"/>
<path fill="none" stroke="#FF0000" d="M576,132c6.627,0,12-5.373,12-12s-5.373-12-12-12"/>
<path fill="none" stroke="#FF0000" d="M576,108c6.627,0,12-5.373,12-12s-5.373-12-12-12"/>
<g>
	<text transform="matrix(1 0 0 1 826 69)" font-family="'ArialMT'" font-size="11">C10</text>
</g>
<g>
	<text transform="matrix(1 0 0 1 826 14)" font-family="'ArialMT'" font-size="11">1.5p</text>
</g>
<line fill="none" stroke="#FF0000" x1="816" y1="36" x2="832" y2="36"/>
<line fill="none" stroke="#FF0000" x1="864" y1="36" x2="847" y2="36"/>
<line fill="none" stroke="#FF0000" x1="847" y1="19" x2="847" y2="52"/>
<line fill="none" stroke="#FF0000" x1="832" y1="19" x2="832" y2="52"/>
<line fill="none" stroke="#FF0000" x1="456" y1="204" x2="504" y2="204"/>
<line fill="none" stroke="#FF0000" x1="475" y1="218" x2="484" y2="218"/>
<line fill="none" stroke="#FF0000" x1="465" y1="211" x2="494" y2="211"/>
<line fill="none" stroke="#FF0000" x1="480" y1="180" x2="480" y2="204"/>
<g>
	<text transform="matrix(1 0 0 1 996 19)" font-family="'ArialMT'" font-size="11">44n</text>
</g>
<g>
	<text transform="matrix(1 0 0 1 1000 66)" font-family="'ArialMT'" font-size="11">L6</text>
</g>
<line fill="none" stroke="#FF0000" x1="1032" y1="36" x2="1056" y2="36"/>
<line fill="none" stroke="#FF0000" x1="960" y1="36" x2="984" y2="36"/>
<path fill="none" stroke="#FF0000" d="M981.05,47.99c0.275,1.353,1.595,2.227,2.948,1.952c0.984-0.2,1.752-0.969,1.952-1.952"/>
<path fill="none" stroke="#FF0000" d="M985.95,47.99c0.275-1.353-0.599-2.673-1.952-2.948c-1.353-0.275-2.673,0.599-2.948,1.952
	c-0.067,0.328-0.067,0.667,0,0.995"/>
<path fill="none" stroke="#FF0000" d="M1032,36c0-6.627-5.373-12-12-12s-12,5.373-12,12"/>
<path fill="none" stroke="#FF0000" d="M1008,36c0-6.627-5.373-12-12-12s-12,5.373-12,12"/>
<g>
	<text transform="matrix(1 0 0 1 1127 98)" font-family="'ArialMT'" font-size="11">C4</text>
</g>
<g>
	<text transform="matrix(1 0 0 1 1127 116)" font-family="'ArialMT'" font-size="11">1p</text>
</g>
<line fill="none" stroke="#FF0000" x1="1104" y1="132" x2="1104" y2="115"/>
<line fill="none" stroke="#FF0000" x1="1104" y1="84" x2="1104" y2="100"/>
<line fill="none" stroke="#FF0000" x1="1087" y1="100" x2="1120" y2="100"/>
<line fill="none" stroke="#FF0000" x1="1087" y1="115" x2="1120" y2="115"/>
<g>
	<text transform="matrix(1 0 0 1 925 122)" font-family="'ArialMT'" font-size="11">1Meg</text>
</g>
<g>
	<text transform="matrix(1 0 0 1 925 140)" font-family="'ArialMT'" font-size="11">R6</text>
</g>
<line fill="none" stroke="#FF0000" x1="904" y1="162" x2="904" y2="126"/>
<line fill="none" stroke="#FF0000" x1="904" y1="126" x2="919" y2="126"/>
<line fill="none" stroke="#FF0000" x1="912" y1="162" x2="912" y2="180"/>
<line fill="none" stroke="#FF0000" x1="912" y1="126" x2="912" y2="108"/>
<line fill="none" stroke="#FF0000" x1="919" y1="162" x2="904" y2="162"/>
<line fill="none" stroke="#FF0000" x1="919" y1="126" x2="919" y2="162"/>
<line fill="none" stroke="#FF0000" x1="888" y1="204" x2="936" y2="204"/>
<line fill="none" stroke="#FF0000" x1="907" y1="218" x2="916" y2="218"/>
<line fill="none" stroke="#FF0000" x1="897" y1="211" x2="926" y2="211"/>
<line fill="none" stroke="#FF0000" x1="912" y1="180" x2="912" y2="204"/>
<g>
	<text transform="matrix(1 0 0 1 1813 338)" font-family="'ArialMT'" font-size="11">50</text>
</g>
<g>
	<text transform="matrix(1 0 0 1 1813 356)" font-family="'ArialMT'" font-size="11">R5</text>
</g>
<line fill="none" stroke="#FF0000" x1="1792" y1="378" x2="1792" y2="342"/>
<line fill="none" stroke="#FF0000" x1="1792" y1="342" x2="1807" y2="342"/>
<line fill="none" stroke="#FF0000" x1="1800" y1="378" x2="1800" y2="396"/>
<line fill="none" stroke="#FF0000" x1="1800" y1="342" x2="1800" y2="324"/>
<line fill="none" stroke="#FF0000" x1="1807" y1="378" x2="1792" y2="378"/>
<line fill="none" stroke="#FF0000" x1="1807" y1="342" x2="1807" y2="378"/>
<g>
	<text transform="matrix(1 0 0 1 1553 151)" font-family="'ArialMT'" font-size="11">ARB1</text>
</g>
<g>
	<text transform="matrix(1 0 0 1 1538 133)" font-family="'ArialMT'" font-size="11">V(1) * V(2)</text>
</g>
<line fill="none" stroke="#FF0000" x1="1632" y1="180" x2="1656" y2="180"/>
<line fill="none" stroke="#FF0000" x1="1488" y1="204" x2="1512" y2="204"/>
<line fill="none" stroke="#FF0000" x1="1488" y1="180" x2="1512" y2="180"/>
<line fill="none" stroke="#FF0000" x1="1632" y1="228" x2="1512" y2="228"/>
<line fill="none" stroke="#FF0000" x1="1632" y1="156" x2="1632" y2="228"/>
<line fill="none" stroke="#FF0000" x1="1512" y1="156" x2="1632" y2="156"/>
<line fill="none" stroke="#FF0000" x1="1512" y1="156" x2="1512" y2="228"/>
<g>
	<text transform="matrix(1 0 0 1 1590 179)" font-family="'ArialMT'" font-size="11">OUT</text>
</g>
<g>
	<text transform="matrix(1 0 0 1 1521 203)" font-family="'ArialMT'" font-size="11">2</text>
</g>
<g>
	<text transform="matrix(1 0 0 1 1521 179)" font-family="'ArialMT'" font-size="11">1</text>
</g>
<line fill="none" stroke="#FF0000" x1="1296" y1="516" x2="1344" y2="516"/>
<line fill="none" stroke="#FF0000" x1="1315" y1="530" x2="1324" y2="530"/>
<line fill="none" stroke="#FF0000" x1="1305" y1="523" x2="1334" y2="523"/>
<line fill="none" stroke="#FF0000" x1="1320" y1="492" x2="1320" y2="516"/>
<g>
	<text transform="matrix(1 0 0 1 1289 409)" font-family="'ArialMT'" font-size="11">50</text>
</g>
<g>
	<text transform="matrix(1 0 0 1 1286 427)" font-family="'ArialMT'" font-size="11">R4</text>
</g>
<line fill="none" stroke="#FF0000" x1="1327" y1="414" x2="1327" y2="450"/>
<line fill="none" stroke="#FF0000" x1="1327" y1="450" x2="1312" y2="450"/>
<line fill="none" stroke="#FF0000" x1="1320" y1="414" x2="1320" y2="396"/>
<line fill="none" stroke="#FF0000" x1="1320" y1="450" x2="1320" y2="468"/>
<line fill="none" stroke="#FF0000" x1="1312" y1="414" x2="1327" y2="414"/>
<line fill="none" stroke="#FF0000" x1="1312" y1="450" x2="1312" y2="414"/>
<g>
	<text transform="matrix(1 0 0 1 124 335)" font-family="'ArialMT'" font-size="11">50</text>
</g>
<g>
	<text transform="matrix(1 0 0 1 122 371)" font-family="'ArialMT'" font-size="11">R3</text>
</g>
<line fill="none" stroke="#FF0000" x1="114" y1="340" x2="150" y2="340"/>
<line fill="none" stroke="#FF0000" x1="150" y1="340" x2="150" y2="355"/>
<line fill="none" stroke="#FF0000" x1="114" y1="348" x2="96" y2="348"/>
<line fill="none" stroke="#FF0000" x1="150" y1="348" x2="168" y2="348"/>
<line fill="none" stroke="#FF0000" x1="114" y1="355" x2="114" y2="340"/>
<line fill="none" stroke="#FF0000" x1="150" y1="355" x2="114" y2="355"/>
<line fill="none" stroke="#FF0000" x1="0" y1="540" x2="48" y2="540"/>
<line fill="none" stroke="#FF0000" x1="19" y1="554" x2="28" y2="554"/>
<line fill="none" stroke="#FF0000" x1="9" y1="547" x2="38" y2="547"/>
<line fill="none" stroke="#FF0000" x1="24" y1="516" x2="24" y2="540"/>
<g>
	<text transform="matrix(1 0 0 1 54 410)" font-family="'ArialMT'" font-size="11">5 Noise(10n 1 0)</text>
</g>
<g>
	<text transform="matrix(1 0 0 1 54 428)" font-family="'ArialMT'" font-size="11">V2</text>
</g>
<line fill="none" stroke="#FF0000" x1="24" y1="468" x2="24" y2="492"/>
<line fill="none" stroke="#FF0000" x1="24" y1="427" x2="24" y2="436"/>
<line fill="none" stroke="#FF0000" x1="24" y1="396" x2="24" y2="420"/>
<line fill="none" stroke="#FF0000" x1="19" y1="432" x2="28" y2="432"/>
<circle fill="none" stroke="#FF0000" cx="24" cy="444" r="24"/>
<g>
	<text transform="matrix(1 0 0 1 54 98)" font-family="'ArialMT'" font-size="11">V1</text>
</g>
<line fill="none" stroke="#FF0000" x1="33" y1="144" x2="36" y2="144"/>
<line fill="none" stroke="#FF0000" x1="33" y1="132" x2="33" y2="144"/>
<line fill="none" stroke="#FF0000" x1="24" y1="156" x2="24" y2="180"/>
<line fill="none" stroke="#FF0000" x1="24" y1="115" x2="24" y2="124"/>
<line fill="none" stroke="#FF0000" x1="24" y1="84" x2="24" y2="108"/>
<line fill="none" stroke="#FF0000" x1="12" y1="144" x2="14" y2="144"/>
<line fill="none" stroke="#FF0000" x1="14" y1="144" x2="14" y2="132"/>
<line fill="none" stroke="#FF0000" x1="14" y1="132" x2="33" y2="132"/>
<line fill="none" stroke="#FF0000" x1="19" y1="120" x2="28" y2="120"/>
<circle fill="none" stroke="#FF0000" cx="24" cy="132" r="24"/>
<line fill="none" stroke="#FF0000" x1="1296" y1="204" x2="1344" y2="204"/>
<line fill="none" stroke="#FF0000" x1="1315" y1="218" x2="1324" y2="218"/>
<line fill="none" stroke="#FF0000" x1="1305" y1="211" x2="1334" y2="211"/>
<line fill="none" stroke="#FF0000" x1="1320" y1="180" x2="1320" y2="204"/>
<g>
	<text transform="matrix(1 0 0 1 1333 122)" font-family="'ArialMT'" font-size="11">180</text>
</g>
<g>
	<text transform="matrix(1 0 0 1 1333 140)" font-family="'ArialMT'" font-size="11">R1</text>
</g>
<line fill="none" stroke="#FF0000" x1="1312" y1="162" x2="1312" y2="126"/>
<line fill="none" stroke="#FF0000" x1="1312" y1="126" x2="1327" y2="126"/>
<line fill="none" stroke="#FF0000" x1="1320" y1="162" x2="1320" y2="180"/>
<line fill="none" stroke="#FF0000" x1="1320" y1="126" x2="1320" y2="108"/>
<line fill="none" stroke="#FF0000" x1="1327" y1="162" x2="1312" y2="162"/>
<line fill="none" stroke="#FF0000" x1="1327" y1="126" x2="1327" y2="162"/>
<line fill="none" stroke="#FF0000" x1="0" y1="204" x2="48" y2="204"/>
<line fill="none" stroke="#FF0000" x1="19" y1="218" x2="28" y2="218"/>
<line fill="none" stroke="#FF0000" x1="9" y1="211" x2="38" y2="211"/>
<line fill="none" stroke="#FF0000" x1="24" y1="180" x2="24" y2="204"/>
<line fill="none" stroke="#FF0000" x1="816" y1="516" x2="864" y2="516"/>
<line fill="none" stroke="#FF0000" x1="835" y1="530" x2="844" y2="530"/>
<line fill="none" stroke="#FF0000" x1="825" y1="523" x2="854" y2="523"/>
<line fill="none" stroke="#FF0000" x1="840" y1="492" x2="840" y2="516"/>
<g>
	<text transform="matrix(1 0 0 1 863 434)" font-family="'ArialMT'" font-size="11">C6</text>
</g>
<g>
	<text transform="matrix(1 0 0 1 863 452)" font-family="'ArialMT'" font-size="11">318p</text>
</g>
<line fill="none" stroke="#FF0000" x1="840" y1="468" x2="840" y2="451"/>
<line fill="none" stroke="#FF0000" x1="840" y1="420" x2="840" y2="436"/>
<line fill="none" stroke="#FF0000" x1="823" y1="436" x2="856" y2="436"/>
<line fill="none" stroke="#FF0000" x1="823" y1="451" x2="856" y2="451"/>
<g>
	<text transform="matrix(1 0 0 1 674 331)" font-family="'ArialMT'" font-size="11">1.591u</text>
</g>
<g>
	<text transform="matrix(1 0 0 1 688 378)" font-family="'ArialMT'" font-size="11">L2</text>
</g>
<line fill="none" stroke="#FF0000" x1="720" y1="348" x2="744" y2="348"/>
<line fill="none" stroke="#FF0000" x1="648" y1="348" x2="672" y2="348"/>
<path fill="none" stroke="#FF0000" d="M669.05,359.99c0.275,1.353,1.594,2.227,2.948,1.953c0.984-0.2,1.753-0.969,1.953-1.953"/>
<path fill="none" stroke="#FF0000" d="M673.95,359.99c0.275-1.353-0.599-2.673-1.953-2.947s-2.673,0.599-2.947,1.953
	c-0.067,0.328-0.067,0.667,0,0.995"/>
<path fill="none" stroke="#FF0000" d="M720,348c0-6.627-5.373-12-12-12s-12,5.373-12,12"/>
<path fill="none" stroke="#FF0000" d="M696,348c0-6.627-5.373-12-12-12s-12,5.373-12,12"/>
<g>
	<text transform="matrix(1 0 0 1 599 434)" font-family="'ArialMT'" font-size="11">C5</text>
</g>
<g>
	<text transform="matrix(1 0 0 1 599 452)" font-family="'ArialMT'" font-size="11">318p</text>
</g>
<line fill="none" stroke="#FF0000" x1="576" y1="468" x2="576" y2="451"/>
<line fill="none" stroke="#FF0000" x1="576" y1="420" x2="576" y2="436"/>
<line fill="none" stroke="#FF0000" x1="559" y1="436" x2="592" y2="436"/>
<line fill="none" stroke="#FF0000" x1="559" y1="451" x2="592" y2="451"/>
<line fill="none" stroke="#FF0000" x1="552" y1="516" x2="600" y2="516"/>
<line fill="none" stroke="#FF0000" x1="571" y1="530" x2="580" y2="530"/>
<line fill="none" stroke="#FF0000" x1="561" y1="523" x2="590" y2="523"/>
<line fill="none" stroke="#FF0000" x1="576" y1="492" x2="576" y2="516"/>
<line fill="none" stroke="#FF0000" x1="1776" y1="420" x2="1824" y2="420"/>
<line fill="none" stroke="#FF0000" x1="1795" y1="434" x2="1804" y2="434"/>
<line fill="none" stroke="#FF0000" x1="1785" y1="427" x2="1814" y2="427"/>
<line fill="none" stroke="#FF0000" x1="1800" y1="396" x2="1800" y2="420"/>
<g>
	<text transform="matrix(1 0 0 1 124 23)" font-family="'ArialMT'" font-size="11">50</text>
</g>
<g>
	<text transform="matrix(1 0 0 1 122 59)" font-family="'ArialMT'" font-size="11">R2</text>
</g>
<line fill="none" stroke="#FF0000" x1="114" y1="28" x2="150" y2="28"/>
<line fill="none" stroke="#FF0000" x1="150" y1="28" x2="150" y2="43"/>
<line fill="none" stroke="#FF0000" x1="114" y1="36" x2="96" y2="36"/>
<line fill="none" stroke="#FF0000" x1="150" y1="36" x2="168" y2="36"/>
<line fill="none" stroke="#FF0000" x1="114" y1="43" x2="114" y2="28"/>
<line fill="none" stroke="#FF0000" x1="150" y1="43" x2="114" y2="43"/>
<line fill="none" stroke="#008000" x1="840" y1="348" x2="1320" y2="348"/>
<rect x="836" y="344" fill="#008000" width="9" height="9"/>
<rect x="1316" y="344" fill="#008000" width="9" height="9"/>
<line fill="none" stroke="#008000" x1="1320" y1="396" x2="1320" y2="348"/>
<line fill="none" stroke="#008000" x1="1200" y1="36" x2="1320" y2="36"/>
<rect x="1316" y="32" fill="#008000" width="9" height="9"/>
<line fill="none" stroke="#008000" x1="1320" y1="108" x2="1320" y2="36"/>
<line fill="none" stroke="#008000" x1="24" y1="36" x2="24" y2="84"/>
<line fill="none" stroke="#008000" x1="96" y1="36" x2="24" y2="36"/>
<line fill="none" stroke="#008000" x1="864" y1="36" x2="912" y2="36"/>
<rect x="908" y="32" fill="#008000" width="9" height="9"/>
<line fill="none" stroke="#008000" x1="912" y1="108" x2="912" y2="36"/>
<line fill="none" stroke="#008000" x1="912" y1="36" x2="960" y2="36"/>
<rect x="908" y="32" fill="#008000" width="9" height="9"/>
<line fill="none" stroke="#008000" x1="408" y1="36" x2="480" y2="36"/>
<rect x="476" y="32" fill="#008000" width="9" height="9"/>
<line fill="none" stroke="#008000" x1="336" y1="36" x2="360" y2="36"/>
<line fill="none" stroke="#008000" x1="576" y1="156" x2="576" y2="180"/>
<line fill="none" stroke="#008000" x1="768" y1="36" x2="816" y2="36"/>
<line fill="none" stroke="#008000" x1="576" y1="36" x2="480" y2="36"/>
<rect x="572" y="32" fill="#008000" width="9" height="9"/>
<line fill="none" stroke="#008000" x1="480" y1="36" x2="480" y2="84"/>
<rect x="476" y="32" fill="#008000" width="9" height="9"/>
<line fill="none" stroke="#008000" x1="576" y1="60" x2="576" y2="36"/>
<line fill="none" stroke="#008000" x1="576" y1="36" x2="672" y2="36"/>
<rect x="572" y="32" fill="#008000" width="9" height="9"/>
<line fill="none" stroke="#008000" x1="480" y1="132" x2="480" y2="180"/>
<line fill="none" stroke="#008000" x1="1104" y1="132" x2="1104" y2="180"/>
<line fill="none" stroke="#008000" x1="1056" y1="36" x2="1104" y2="36"/>
<rect x="1100" y="32" fill="#008000" width="9" height="9"/>
<line fill="none" stroke="#008000" x1="1104" y1="36" x2="1104" y2="84"/>
<line fill="none" stroke="#008000" x1="1104" y1="36" x2="1152" y2="36"/>
<rect x="1100" y="32" fill="#008000" width="9" height="9"/>
<line fill="none" stroke="#008000" x1="1800" y1="180" x2="1800" y2="324"/>
<line fill="none" stroke="#008000" x1="1656" y1="180" x2="1800" y2="180"/>
<line fill="none" stroke="#008000" x1="1320" y1="36" x2="1488" y2="36"/>
<rect x="1316" y="32" fill="#008000" width="9" height="9"/>
<line fill="none" stroke="#008000" x1="1320" y1="348" x2="1488" y2="348"/>
<rect x="1316" y="344" fill="#008000" width="9" height="9"/>
<line fill="none" stroke="#008000" x1="840" y1="468" x2="840" y2="492"/>
<line fill="none" stroke="#008000" x1="576" y1="468" x2="576" y2="492"/>
<line fill="none" stroke="#008000" x1="576" y1="420" x2="576" y2="348"/>
<rect x="572" y="344" fill="#008000" width="9" height="9"/>
<line fill="none" stroke="#008000" x1="840" y1="420" x2="840" y2="348"/>
<line fill="none" stroke="#008000" x1="648" y1="348" x2="576" y2="348"/>
<line fill="none" stroke="#008000" x1="744" y1="348" x2="840" y2="348"/>
<rect x="836" y="344" fill="#008000" width="9" height="9"/>
<line fill="none" stroke="#008000" x1="1488" y1="180" x2="1488" y2="36"/>
<line fill="none" stroke="#008000" x1="1488" y1="204" x2="1488" y2="348"/>
<line fill="none" stroke="#008000" x1="168" y1="36" x2="240" y2="36"/>
<line fill="none" stroke="#008000" x1="24" y1="516" x2="24" y2="492"/>
<line fill="none" stroke="#008000" x1="24" y1="396" x2="24" y2="348"/>
<line fill="none" stroke="#008000" x1="96" y1="348" x2="24" y2="348"/>
<line fill="none" stroke="#008000" x1="168" y1="348" x2="576" y2="348"/>
<rect x="572" y="344" fill="#008000" width="9" height="9"/>
<line fill="none" stroke="#008000" x1="1320" y1="492" x2="1320" y2="468"/>
</svg>
